#!OML:ASF E:/inclinewalkrobotboard/Project1/Captureday1/Session1/subject1.ASF
:FULLY-SPECIFIED
:DEGREES
63
root 0 0 0 1.8797348652326054 -10.86653298102678 0.9627576568372117
lowerback -0.06811785680616933 -1.7117677949935122 -2.6115076062717284
upperback -0.529761210897572 -2.2533737216735097 2.021312777615986
thorax -0.3019331278525099 -1.1141837703864872 3.498547540031856
lowerneck -26.243161462034546 -1.6663018881893157 -7.5784310330528495
upperneck 25.581026105748457 0.390555217776961 2.0699247685878146
head 12.983520362791094 -0.47918570298353735 2.2356541279831363
rclavicle 1.882982497712227E-15 -2.38284961704677E-15
rhumerus -34.07438948580678 -2.587656809506754 -77.69247652706292
rradius 28.27606617845444
rwrist 20.395996351165685
rhand -17.777353843840007 9.048182893177732
rfingers 7.125019999999937
rthumb 8.481126433661597 -20.74496314227083
lclavicle 2.0135466057628366E-16 1.700616404548675E-16
lhumerus -20.26247703255162 -10.606242944034758 90.81526152839825
lradius 67.48648888802674
lwrist 3.9769706374402927
lhand -28.476210439989025 23.240391912456996
lfingers 7.125020000000008
lthumb -1.8782987167453964 53.316642510142444
rfemur -34.1240988970921 6.557770047381447 22.394133476269065
rtibia 14.733050006539875
rfoot -4.383727750480336 -10.373359749428046
rtoes 2.054440593381667
lfemur 11.983285596741105 -2.429374705367068 -21.18360653183468
ltibia 40.00182824549273
lfoot 4.485653350245849 -15.722216660591503
ltoes -17.579018466375665
64
root 0 0 0 1.8050707736730907 -10.814542784061057 0.86741486930411
lowerback 0.06132110132170454 -1.6526870170321144 -2.5088191398874904
upperback -0.5688830630158151 -2.173394706218626 2.069035336925087
thorax -0.42018281093643395 -1.0728126776606206 3.4910522477778834
lowerneck -25.654164307424512 -1.5408011054013704 -7.441552405611173
upperneck 26.455949855735774 0.5745979914526342 1.788632845862833
head 13.2216488911215 -0.4674579359683009 2.162247730018474
rclavicle 1.2319685544234155E-15 -2.7158077943064314E-15
rhumerus -34.062354350213354 -3.019270730032624 -77.7871156170341
rradius 28.286056537383672
rwrist 20.44187790140113
rhand -17.662975506843136 9.041573970182437
rfingers 7.125019999999935
rthumb 8.591181120574893 -20.74188555209775
lclavicle 1.7393149727387798E-16 -3.1274852727002375E-16
lhumerus -20.840610180520738 -9.065311916056626 90.94541504103388
lradius 66.82386325002423
lwrist 3.5397904779164597
lhand -28.364041112168614 22.596530689481913
lfingers 7.125020000000013
lthumb -1.7705952102185396 52.66477760001124
rfemur -24.30850886203355 7.414165482160671 30.734157520461196
rtibia 16.36431155107457
rfoot -2.575815248891862 -7.703254845705719
rtoes 9.140229680299232
lfemur -0.041967190358287665 -1.2820064923991858 -17.749915592093192
ltibia 47.61008755785872
lfoot 10.534230864155859 -14.890306369094663
ltoes -10.19865343501321
65
root 0 0 0 1.735159715538865 -10.807157544971977 0.7798715872311726
lowerback 0.1124068952108046 -1.6085694363420515 -2.444380058099103
upperback -0.6038253971391638 -2.1130116555683527 2.0302194997146263
thorax -0.4893753336855017 -1.040976506364193 3.415228514381532
lowerneck -24.986858157886484 -1.4643169544950174 -7.385979614881163
upperneck 27.756381181542334 0.6782298962478095 1.5371622753370495
head 13.585006570756521 -0.4917043247160867 2.1023903282431124
rclavicle 3.644111122217935E-16 -2.5138087526907075E-15
rhumerus -33.98726903307076 -3.7307916123704996 -78.09772417808378
rradius 28.448175755767014
rwrist 20.481299161534853
rhand -17.50899379304521 8.995395604618587
rfingers 7.125019999999933
rthumb 8.739127911994041 -20.78034117424797
lclavicle 1.807732885243718E-16 -9.299967458705434E-16
lhumerus -21.595402336243282 -7.150733895350923 91.36478476149806
lradius 66.0060005697188
lwrist 2.771694374327715
lhand -28.48392829110057 21.820986238507977
lfingers 7.125020000000021
lthumb -1.8750598575685098 51.86295082481525
rfemur -16.34398539937711 7.122407338466066 35.429123430780194
rtibia 24.57560857864751
rfoot -7.479831554989325 -6.388213618928933
rtoes 13.676266475523033
lfemur -5.246236227757746 -0.37593815177785816 -16.318423573311797
ltibia 51.64893962068709
lfoot 10.599090261506959 -13.477438503288212
ltoes -8.37163147791534
66
root 0 0 0 1.69814171613204 -10.790113755109914 0.7386684342233956
lowerback 0.1098408047886128 -1.576898336745413 -2.4408560793744596
upperback -0.6345529871010862 -2.070127594534208 1.979476215748525
thorax -0.52376414279062 -1.0176325453991197 3.362186782440288
lowerneck -24.567639049698133 -1.4573884970808983 -7.408291544199289
upperneck 28.50369783030346 0.6652342711706943 1.4848214913848252
head 13.774639099807496 -0.5241882748063527 2.096240970708127
rclavicle -2.9450453018720573E-15 -6.522158965289071E-16
rhumerus -33.70056980314531 -4.608352077273776 -78.90404486434332
rradius 29.013466716122412
rwrist 20.484444108894408
rhand -17.345589848255184 8.826696005859858
rfingers 7.125019999999938
rthumb 8.897396969441674 -20.959645197080427
lclavicle -2.0003002609329015E-15 -5.869608870417956E-16
lhumerus -22.10638432917923 -6.146697761276787 91.89809205990231
lradius 65.35723686289546
lwrist 2.1115845694247555
lhand -28.79081489670508 21.09104349786135
lfingers 7.125020000000025
lthumb -2.161677652045441 51.10159864752074
rfemur -7.1992745289198155 7.640582733649836 37.905559115931894
rtibia 26.91231307118062
rfoot -15.390160868266673 -6.46568256624216
rtoes 14.365353895978146
lfemur -15.910101636508168 1.738391328599954 -14.101498179697812
ltibia 55.64709722159988
lfoot 3.216873285317419 -8.12854588889391
ltoes -8.691639099982993
67
root 0 0 0 1.7008728721958792 -10.772231852534015 0.7340908609074904
lowerback 0.08794479757133389 -1.5631315299324011 -2.463261217678901
upperback -0.6472432605266975 -2.0504326103062893 1.9559058593384524
thorax -0.5268822079170834 -1.0070010131503746 3.3507801093320904
lowerneck -24.421303931554032 -1.4746824097778375 -7.453777082043621
upperneck 28.657603573022737 0.6195308652704854 1.5424366711573512
head 13.79607419745711 -0.5413692883385041 2.1180501336180986
rclavicle -3.835187717743978E-15 3.396601661690432E-16
rhumerus -33.29123788980566 -4.840721498932621 -79.69031765630426
rradius 29.598570867934846
rwrist 20.320174583249123
rhand -17.33466560925873 8.744964997101638
rfingers 7.125019999999942
rthumb 8.90899488110391 -21.05847479030586
lclavicle -1.6238250896729541E-15 1.0856662558694537E-16
lhumerus -22.09124229188592 -5.903965513321067 92.05237815508455
lradius 65.1923174154391
lwrist 1.8861548866288076
lhand -28.959799538471664 20.9597357169605
lfingers 7.125020000000025
lthumb -2.325258835540388 50.9576059513515
rfemur -1.4642066114460182 8.223284654721828 38.63429285974655
rtibia 25.14293668323858
rfoot -20.186351203258283 -7.52081438389513
rtoes 11.890495551282616
lfemur -21.257251050562772 2.8284765337347166 -13.738608778561618
ltibia 56.80949546180179
lfoot -1.2761602034621653 -5.159870601606728
ltoes -7.294465340595668
68
root 0 0 0 1.7102095261808075 -10.740723555081178 0.7431624403740675
lowerback 0.065115723696477 -1.5491845088537055 -2.494448275019625
upperback -0.6588592829744914 -2.031295437262941 1.9361644124811748
thorax -0.5279223068021891 -0.9961855521164311 3.34853956527055
lowerneck -24.37920980364715 -1.515753768760279 -7.503161294435936
upperneck 28.603240797534735 0.5344158161716598 1.6557424570396129
head 13.755465429959392 -0.5634184950005944 2.1514995049458014
rclavicle -2.4169633226628965E-15 9.508444997754025E-16
rhumerus -32.52647956949436 -4.248354722573396 -80.68555708176518
rradius 30.386502695549144
rwrist 19.82680871027079
rhand -17.499369707511992 8.79324184079666
rfingers 7.125019999999941
rthumb 8.750838099639289 -21.02938901820033
lclavicle -3.500087754066278E-16 5.896486523398358E-16
lhumerus -21.780015474744534 -5.403782491279544 91.9823249875911
lradius 65.02710956584284
lwrist 1.7422441523720846
lhand -29.03834222609079 20.90385014558887
lfingers 7.125020000000025
lthumb -2.39991151922061 50.89253689652029
rfemur 1.8849608451024693 8.693351368203968 38.68335285616915
rtibia 22.588128612768795
rfoot -22.663612280915533 -8.454356476620804
rtoes 8.469013311859442
lfemur -24.066662611371438 2.795484978166589 -13.22449273300432
ltibia 54.64884213419468
lfoot -3.5632419027098043 -3.3204350666718527
ltoes -6.522001357776027
69
root 0 0 0 1.725820566141315 -10.706212600757434 0.7572516863956986
lowerback 0.04719116495454001 -1.5382147360532517 -2.521653515226592
upperback -0.6592043465533249 -2.016991776483861 1.9208872142873648
thorax -0.5198466124344411 -0.9881529965398246 3.3492333692549754
lowerneck -24.3954106123911 -1.5648921015165647 -7.548738757418426
upperneck 28.452366445356567 0.4386924699029652 1.7807205046514811
head 13.688757559500605 -0.5855267258830739 2.18567652557261
rclavicle -2.5309385923310042E-15 1.0025374495951577E-15
rhumerus -31.57414871389368 -2.7218685725687988 -81.65788681740618
rradius 31.242598519805576
rwrist 19.11377264421964
rhand -17.858104091625243 8.91412978480629
rfingers 7.125019999999941
rthumb 8.40504445451296 -20.924824270777965
lclavicle 2.997841223747274E-16 3.802100969067995E-16
lhumerus -21.337723161599246 -4.737429194675191 91.71047621091216
lradius 64.86223283887813
lwrist 1.712561825318994
lhand -28.967652860983886 20.81286303535244
lfingers 7.125020000000025
lthumb -2.328524421914577 50.798650965142784
rfemur 4.331850402219496 8.947138965105898 38.40051965573107
rtibia 20.752730588473316
rfoot -23.52568996422582 -8.619805240183172
rtoes 4.981930306430222
lfemur -26.968460746183414 1.913701563182797 -12.19903336664043
ltibia 48.743945206491986
lfoot -5.404516279783223 -0.9616111805080436
ltoes -5.892807327907502
70
root 0 0 0 1.7434366802975232 -10.688605347572729 0.7715936581505942
lowerback 0.023384984733781033 -1.5329606915447573 -2.542540863636598
upperback -0.6554553597992117 -2.0104660564852255 1.903229930655685
thorax -0.5042900885381004 -0.9844714098892364 3.3436980493355506
lowerneck -24.423164564191964 -1.6067444850839414 -7.588501692273416
upperneck 28.33976815975158 0.36215219751717864 1.8766281244876637
head 13.64235570842795 -0.6035676896392829 2.2117843001410344
rclavicle -6.697163858568584E-15 1.2394287566362513E-15
rhumerus -30.997595124680263 -1.1809269019180144 -82.1497697457342
rradius 31.75831026011491
rwrist 18.602373581867575
rhand -18.247337564651197 9.014220151855127
rfingers 7.125019999999944
rthumb 8.031200488611058 -20.850236716404954
lclavicle 2.7578864769052247E-16 2.330788393901863E-17
lhumerus -20.941047363063817 -4.1194758171249655 91.39272652708209
lradius 64.73054959231334
lwrist 1.7419635792267
lhand -28.831031126850057 20.70682909402485
lfingers 7.125020000000026
lthumb -2.1932346320494043 50.693314955907034
rfemur 7.363884482411306 8.989641165633582 37.824426357229
rtibia 20.636807432075546
rfoot -23.4423546855059 -8.128530001059145
rtoes 1.3432748906784422
lfemur -30.716483816166352 -0.32171584987725854 -10.400250697773133
ltibia 36.89413153278557
lfoot -6.805421610042565 2.6695552379190253
ltoes -4.912692402811649
